<?xml version="1.0" encoding="UTF-8" standalone="no"?><svg xmlns="http://www.w3.org/2000/svg" xmlns:xlink="http://www.w3.org/1999/xlink" contentStyleType="text/css" height="193px" preserveAspectRatio="none" style="width:580px;height:193px;background:#FFFFFF;" version="1.1" viewBox="0 0 580 193" width="580px" zoomAndPan="magnify"><defs/><g><g id="elem_r"><ellipse cx="471.1177" cy="164.6235" fill="#F1F1F1" rx="103.6177" ry="23.1235" style="stroke:#181818;stroke-width:0.5;"/><text fill="#000000" font-family="sans-serif" font-size="14" lengthAdjust="spacing" textLength="172" x="385.1177" y="167.4702">traivaille sur un chantier</text></g><g id="elem_d"><ellipse cx="74.24" cy="164.548" fill="#F1F1F1" rx="68.24" ry="16.048" style="stroke:#181818;stroke-width:0.5;"/><text fill="#000000" font-family="sans-serif" font-size="14" lengthAdjust="spacing" textLength="88" x="27.24" y="168.2956">calcule paye</text></g><g id="elem_h"><ellipse cx="254.8536" cy="164.3707" fill="#F1F1F1" rx="77.3536" ry="17.8707" style="stroke:#181818;stroke-width:0.5;"/><text fill="#000000" font-family="sans-serif" font-size="14" lengthAdjust="spacing" textLength="112" x="196.1333" y="168.0454">heure de travail</text></g><!--MD5=[34de0e2868cddc1967ff25186031913f]
entity Artisant--><g id="elem_Artisant"><ellipse cx="471" cy="14" fill="#F1F1F1" rx="8" ry="8" style="stroke:#181818;stroke-width:0.5;"/><path d="M471,22 L471,49 M458,30 L484,30 M471,49 L458,64 M471,49 L484,64 " fill="none" style="stroke:#181818;stroke-width:0.5;"/><text fill="#000000" font-family="sans-serif" font-size="14" lengthAdjust="spacing" textLength="58" x="442" y="78.4951">Artisant</text></g><!--MD5=[3b23e3bceb1882564806416aa5eed447]
link Artisant to r--><g id="link_Artisant_r"><path d="M471,81.5 C471,99.154 471,119.9072 471,136.1182 " fill="none" id="Artisant-to-r" style="stroke:#181818;stroke-width:1.0;"/><polygon fill="#181818" points="471,141.4307,475,132.4307,471,136.4307,467,132.4307,471,141.4307" style="stroke:#181818;stroke-width:1.0;"/></g><!--MD5=[4e8e5b39f36cd5f5306fd02639c5456b]
link d to h--><g id="link_d_h"><path d="M142.229,164.5 C152.232,164.5 162.235,164.5 172.239,164.5 " fill="none" id="d-to-h" style="stroke:#181818;stroke-width:1.0;"/><polygon fill="#181818" points="177.47,164.5,168.47,160.5,172.47,164.5,168.47,168.5,177.47,164.5" style="stroke:#181818;stroke-width:1.0;"/></g><!--MD5=[5370467ae9bcdbfd9a4675c0033daa48]
link h to r--><g id="link_h_r"><path d="M332.625,164.5 C342.521,164.5 352.418,164.5 362.314,164.5 " fill="none" id="h-to-r" style="stroke:#181818;stroke-width:1.0;"/><polygon fill="#181818" points="367.489,164.5,358.489,160.5,362.489,164.5,358.489,168.5,367.489,164.5" style="stroke:#181818;stroke-width:1.0;"/></g><!--MD5=[aeac87c6759f27fada5496f9b547707b]
@startuml
usecase r as "traivaille sur un chantier"
usecase d as "calcule paye"
usecase h as "heure de travail"

actor Artisant
Artisant - -> r
d -> h
h -> r
@enduml

PlantUML version 1.2022.3beta2(Unknown compile time)
(GPL source distribution)
Java Runtime: Java(TM) SE Runtime Environment
JVM: Java HotSpot(TM) 64-Bit Server VM
Default Encoding: UTF-8
Language: en
Country: US
--></g></svg>